PathFileType	4	(X/Y/Z)	./resultDataOpenSim/trcMotMarkerGrf/sub09/qtm-03-05.trc
DataRate	CameraRate	NumFrames	NumMarkers	Units	OrigDataRate	OrigDataStartFrame	OrigNumFrames
250.000000	250.000000	12	24	m	250.000000	292	466
Frame#	Time	L.Toe.Tip			R.Toe.Tip			L.Ankle.Lat			R.Ankle.Lat			L.Ankle.Med			R.Ankle.Med			L.Heel			R.Heel			L.Knee.Lat			R.Knee.Lat			L.Knee.Med			R.Knee.Med			L.Thigh.Upper			R.Thigh.Upper			L.ASIS			R.ASIS			V.Sacral			L.Acromium			R.Acromium			C7			L.Elbow			R.Elbow			L.Wrist.Lat			R.Wrist.Lat
		X1	Y1	Z1	X2	Y2	Z2	X3	Y3	Z3	X4	Y4	Z4	X5	Y5	Z5	X6	Y6	Z6	X7	Y7	Z7	X8	Y8	Z8	X9	Y9	Z9	X10	Y10	Z10	X11	Y11	Z11	X12	Y12	Z12	X13	Y13	Z13	X14	Y14	Z14	X15	Y15	Z15	X16	Y16	Z16	X17	Y17	Z17	X18	Y18	Z18	X19	Y19	Z19	X20	Y20	Z20	X21	Y21	Z21	X22	Y22	Z22	X23	Y23	Z23	X24	Y24	Z24

292	1.164	0.11727729	-0.010500141	-0.0039816596	0.94880527	0.096676879	0.11481311	0.00092380644	0.08763404	-0.052823761	0.80591569	0.05877119	0.14794753	0.032076704	0.09560605	0.040136584	0.80209969	0.099599285	0.057059796	-0.074483016	0.088411869	-0.0085738954	0.75222844	0.016097967	0.098949863	0.22779417	0.4429557	-0.096391201	0.6668484	0.4971483	0.19783827	0.23612023	0.43571712	0.029270507	0.6592012	0.47569947	0.071237428	0.36988642	0.83148456	-0.12202445	0.43917157	0.825674	0.24551302	0.48080627	0.90270367	-0.083847717	0.50813176	0.91264436	0.16097793	0.3331803	0.96154085	0.061578441	0.50050411	1.3666368	-0.10861985	0.47649212	1.3651718	0.21866885	0.42139059	1.4136181	0.050953509	0.42556583	0.99269444	-0.17732854	0.31515462	1.0415465	0.2943142	0.69075275	0.92632096	-0.14371402	0.40921797	0.79136501	0.33773319
293	1.168	0.11773255	-0.010390934	-0.0042567693	0.95357768	0.089540899	0.11522089	0.0033541302	0.089678937	-0.054317266	0.80851956	0.057993488	0.14731002	0.034391045	0.0972774	0.038680676	0.80715298	0.098982223	0.056463527	-0.072132622	0.091644632	-0.010389622	0.75352824	0.017928057	0.097720132	0.23448562	0.44275126	-0.096633403	0.67383692	0.49597365	0.19807371	0.24265895	0.43489038	0.02911698	0.66591521	0.47455575	0.071749894	0.37751264	0.83052686	-0.12104555	0.44642313	0.82499894	0.24631019	0.48909289	0.90180071	-0.082792552	0.51544996	0.91197023	0.16170155	0.34074916	0.96102654	0.061967908	0.50717672	1.3660247	-0.10796831	0.48323444	1.3644907	0.21935707	0.42800169	1.412878	0.051831218	0.431902	0.99218738	-0.17663584	0.32240156	1.0406169	0.29471469	0.69683535	0.92485724	-0.14299247	0.4168316	0.79054916	0.33802524
294	1.172	0.11822524	-0.010273901	-0.0045538463	0.95881737	0.083231157	0.11582634	0.0059566581	0.091801216	-0.055940509	0.81152076	0.057653545	0.14729383	0.036828826	0.099001976	0.03715141	0.81271723	0.098553341	0.05629327	-0.069567822	0.09497568	-0.012290134	0.75514489	0.020025472	0.096877377	0.24124071	0.44251351	-0.096797635	0.68066771	0.49508323	0.19825935	0.2494927	0.43404352	0.028903476	0.67266968	0.47367084	0.072222076	0.38521079	0.82958761	-0.1199427	0.45373038	0.82439333	0.2471099	0.49742059	0.90093797	-0.081629056	0.52263359	0.91147453	0.16243065	0.34832479	0.96065866	0.062408936	0.51386163	1.3654681	-0.10733861	0.48995802	1.3638686	0.22006511	0.43471754	1.4122707	0.052697833	0.4382135	0.99170948	-0.17592871	0.32965727	1.0397103	0.29511849	0.70285786	0.9233266	-0.14228416	0.42449625	0.78977301	0.33830979
295	1.176	0.1187456	-0.010152682	-0.0048750813	0.96353196	0.078294181	0.11665511	0.0087504988	0.094003333	-0.057686222	0.81470742	0.057257519	0.14776414	0.039403222	0.10078865	0.035553341	0.81767382	0.097900606	0.056518105	-0.066766756	0.09842334	-0.014259723	0.75688684	0.021842774	0.096690768	0.24795982	0.44223734	-0.096891466	0.6875912	0.49462148	0.19844972	0.25646985	0.43320639	0.028665636	0.67951574	0.47331819	0.072641454	0.3929686	0.82864778	-0.11883811	0.46105031	0.82395303	0.24794818	0.50564935	0.90006184	-0.080468817	0.52972237	0.91118029	0.16318364	0.3558921	0.96039737	0.062921826	0.52056105	1.3649796	-0.10673964	0.4966608	1.3633101	0.22079114	0.44154501	1.4117829	0.053502468	0.44450512	0.99127144	-0.17520257	0.33691351	1.0388347	0.29551967	0.70881457	0.92173057	-0.1416055	0.43221485	0.78904571	0.33858859
296	1.18	0.119286	-0.010025838	-0.0052162198	0.96713642	0.074567277	0.1178711	0.01171445	0.096277807	-0.059511421	0.81786539	0.056616392	0.14844411	0.042143482	0.10263642	0.033885779	0.82150791	0.097046938	0.05699981	-0.063739427	0.10199195	-0.016274471	0.7586185	0.023214125	0.097037017	0.25463872	0.44193557	-0.096957731	0.69486047	0.49473116	0.19869712	0.26331346	0.43241401	0.028474063	0.68648129	0.47368365	0.073076207	0.40077482	0.82768771	-0.11785969	0.46834983	0.82378144	0.24882544	0.51372806	0.89915877	-0.079370826	0.53674241	0.91108942	0.16396557	0.36343873	0.9602094	0.063493187	0.52727825	1.3645705	-0.10616908	0.50335305	1.3628199	0.22153047	0.44843439	1.4114001	0.054246792	0.450775	0.99089453	-0.17445502	0.34417023	1.0380036	0.29591751	0.71470014	0.92007371	-0.14096761	0.4399948	0.78838031	0.33886667
297	1.184	0.11983678	-0.0098948423	-0.0055667351	0.96973737	0.071416054	0.11947842	0.014828891	0.098630482	-0.061351393	0.82081257	0.055834437	0.14916024	0.045079174	0.10453922	0.032153025	0.82446413	0.096268201	0.057622197	-0.060501613	0.10567411	-0.018283061	0.76019806	0.024259767	0.097601357	0.2614268	0.44162781	-0.097033053	0.70260343	0.49561374	0.19898522	0.26991004	0.43168075	0.028353664	0.69358317	0.47477941	0.073609186	0.40860963	0.82671337	-0.11704371	0.47559604	0.82396201	0.24970193	0.52163183	0.89823015	-0.078360671	0.54371097	0.91120489	0.16477844	0.37095306	0.96008043	0.064037447	0.53401684	1.3642497	-0.10561804	0.51005035	1.3624035	0.22227656	0.45533184	1.4111013	0.05495313	0.45702039	0.99060091	-0.17368483	0.3514173	1.0372324	0.29630797	0.72050806	0.9183599	-0.14037143	0.44784694	0.78778992	0.33914917
298	1.188	0.12037378	-0.0097692696	-0.0059158343	0.97174109	0.068246299	0.12112203	0.018094312	0.10106765	-0.063168204	0.82337597	0.055052671	0.14985756	0.048229736	0.10648441	0.030365531	0.82699279	0.095750367	0.058308692	-0.057060789	0.10946275	-0.020217046	0.76147621	0.025144218	0.098145943	0.26851305	0.44131198	-0.097134517	0.71078193	0.49746309	0.19925197	0.27641689	0.43097755	0.028296157	0.70083906	0.47646145	0.074264501	0.41645348	0.82574533	-0.11635601	0.4827463	0.82453046	0.25053826	0.52934287	0.89728005	-0.077443047	0.55064022	0.91153123	0.16563084	0.37841358	0.96000609	0.064457731	0.5407783	1.3640204	-0.10508184	0.51676092	1.362064	0.22302239	0.46221536	1.4108611	0.05563799	0.46324376	0.99039993	-0.17289439	0.35859842	1.0365312	0.29666352	0.72622952	0.91658975	-0.13981483	0.45577151	0.7872796	0.33943553
299	1.192	0.12086103	-0.0096610451	-0.006262748	0.97340536	0.064788786	0.12230959	0.02149438	0.10356792	-0.06496685	0.82540292	0.05429663	0.15049331	0.051613385	0.10846085	0.028533884	0.82926615	0.095445314	0.058996535	-0.053409991	0.11336386	-0.022013503	0.76238291	0.025927816	0.098597614	0.27598298	0.44096498	-0.097288799	0.71925654	0.50017414	0.19947061	0.28317741	0.43025411	0.028246174	0.70823918	0.47851553	0.074981749	0.42429841	0.82480068	-0.11577156	0.48976178	0.82546048	0.25133447	0.53689214	0.89633962	-0.07657541	0.55754097	0.91206248	0.16653319	0.38577249	0.95997374	0.064721185	0.54756459	1.3638809	-0.10455783	0.52347979	1.3618002	0.22376241	0.46908527	1.4106662	0.056304908	0.46944681	0.99029094	-0.17208718	0.36560967	1.0359078	0.29692491	0.73186137	0.91476416	-0.13929023	0.46375571	0.78684593	0.33971889
300	1.196	0.12128106	-0.0095675955	-0.0066206463	0.97479092	0.061094691	0.12278943	0.024989	0.10610652	-0.066752216	0.82682153	0.053563889	0.15101098	0.055261301	0.11047454	0.0266649	0.83121607	0.095184104	0.059631959	-0.049524341	0.11740139	-0.02362673	0.76297784	0.02659672	0.098989154	0.28384142	0.44057125	-0.097539844	0.72784465	0.50319621	0.1996652	0.29060415	0.42947721	0.028041195	0.71573375	0.4807375	0.075663156	0.43213541	0.82389651	-0.11529347	0.49662794	0.82667452	0.25212691	0.54436655	0.89547131	-0.075672174	0.56443069	0.91277753	0.16748671	0.39292478	0.95996331	0.064816396	0.55438284	1.3638299	-0.10403458	0.53019483	1.3616137	0.22449243	0.4759388	1.4105269	0.056955442	0.47562469	0.99027991	-0.17126437	0.372414	1.0353686	0.29705447	0.73740517	0.91288994	-0.13878638	0.47178712	0.78648744	0.33999257
301	1.2	0.12166919	-0.0094562285	-0.0070055015	0.97596022	0.057401233	0.1226455	0.028562827	0.1086996	-0.068500949	0.82776169	0.052922493	0.1513785	0.059215143	0.1125424	0.024769273	0.83282042	0.094854283	0.06016863	-0.045365035	0.12160676	-0.025025387	0.76342083	0.027166101	0.099383132	0.29209902	0.44011969	-0.097909036	0.73635502	0.50586303	0.19988603	0.29892233	0.42861879	0.027537763	0.72326915	0.48297578	0.076255321	0.43995773	0.82304833	-0.11490797	0.50336486	0.82807418	0.25295493	0.5518697	0.89474256	-0.074643349	0.57133564	0.91364422	0.168481	0.39971639	0.95997365	0.064662583	0.56124011	1.3638695	-0.10349575	0.5368981	1.3615119	0.22520672	0.48276104	1.4104581	0.057594622	0.4817747	0.99038349	-0.17043027	0.37917698	1.0349033	0.297122	0.74285876	0.91097788	-0.13829712	0.47986209	0.78620949	0.34025325
302	1.204	0.1221146	-0.0092649976	-0.0074207624	0.97708605	0.053958714	0.12210528	0.032249522	0.11138974	-0.070179894	0.82857199	0.052455078	0.15158064	0.063509787	0.11467172	0.022872586	0.83421872	0.094461183	0.060558331	-0.040891837	0.12599769	-0.02618966	0.7638953	0.027702505	0.099809264	0.30076158	0.43958149	-0.098377613	0.74463736	0.50781442	0.20020495	0.30783175	0.42762515	0.026845162	0.73080376	0.48512741	0.076776038	0.44778403	0.82225535	-0.11454298	0.51002433	0.82957035	0.2538364	0.55945813	0.89418348	-0.073441824	0.57828029	0.9146246	0.1694971	0.40610559	0.96003295	0.064170071	0.56813394	1.3639982	-0.10293519	0.54358266	1.3615003	0.22589845	0.48953698	1.4104534	0.05822134	0.48790337	0.99061539	-0.16959683	0.38614342	1.0344912	0.29726491	0.74821712	0.90903097	-0.13782074	0.48798562	0.78601495	0.34049711
303	1.208	0.12271763	-0.0089259376	-0.0078533044	0.9783453	0.050942491	0.12135098	0.036110319	0.11420375	-0.071758414	0.82958038	0.052189123	0.15160392	0.06815545	0.11686363	0.021019459	0.83558976	0.094070105	0.0607499	-0.036079182	0.13057137	-0.027119845	0.76451673	0.028259875	0.1002231	0.3098001	0.43892056	-0.098934101	0.75259767	0.5090501	0.20067118	0.31675868	0.42643148	0.026209652	0.73828126	0.4871098	0.077270642	0.45563779	0.82149889	-0.11410444	0.51667141	0.83110073	0.25476566	0.56708266	0.89375422	-0.072107478	0.58527353	0.91568357	0.17051035	0.41236044	0.96017572	0.063419551	0.57505863	1.3642032	-0.1023565	0.55023218	1.3615713	0.22656296	0.49626062	1.410492	0.058825882	0.49401949	0.99097768	-0.1687776	0.39336195	1.0341299	0.29753359	0.75347837	0.90703745	-0.13735729	0.49616532	0.78589524	0.34072064
